<svg viewBox="0 0 34 40" xmlns="http://www.w3.org/2000/svg">
  <g fill-rule="nonzero" fill="none">
    <path fill-opacity=".5" fill="#FFF" d="M20.292 9.717L29.047.781H4.937l8.755 8.936z"/>
    <g fill="#FFF" fill-opacity=".5">
      <path d="M16.992 13.085L4.937.781.833 9.717l8.602 8.563M24.55 18.28l8.601-8.563-1.436-3.127-9.982 9.96"/>
    </g>
    <path fill-opacity=".5" fill="#FFF" d="M21.733 16.549l9.982-9.958-2.668-5.81-14.796 15.102"/>
    <path d="M4.493 9.333a.772.772 0 0 1-.553-.23.748.748 0 0 1-.17-.252.825.825 0 0 1-.06-.3.768.768 0 0 1 .06-.298.77.77 0 0 1 .423-.423.773.773 0 0 1 .735.072.75.75 0 0 1 .288.351.732.732 0 0 1 .06.299.782.782 0 0 1-.783.78z" fill="#929292"/>
    <ellipse fill="#FFF" cx="16.992" cy="27.392" rx="11.854" ry="11.827"/>
    <path d="M33.863 9.392L29.76.456c0-.001-.192-.456-.721-.456H4.949c-.492 0-.723.455-.724.456L.121 9.392a.78.78 0 0 0 .159.879l8.017 7.98a12.56 12.56 0 0 0-3.942 9.141C4.355 34.344 10.025 40 16.992 40c6.968 0 12.637-5.656 12.637-12.608a12.56 12.56 0 0 0-3.942-9.14l8.018-7.981a.78.78 0 0 0 .158-.879zm-16.87 2.576l-1.44-1.47h2.878l-1.439 1.47zM28.81 2.14l1.967 4.281-9.23 9.209a12.598 12.598 0 0 0-5.137-.834l12.4-12.656zm-1.623-.579l-7.225 7.374h-5.94L6.798 1.563h20.389zM1.772 9.55L5.174 2.14l10.723 10.944-2.052 2.095c-.415.107-.822.234-1.22.38l-5.53-5.517a.784.784 0 0 0-1.107 0 .78.78 0 0 0 0 1.105l5.107 5.095c-.557.295-1.09.63-1.593 1L1.772 9.55zm26.291 17.843c0 6.09-4.966 11.046-11.07 11.046-6.105 0-11.072-4.955-11.072-11.046 0-6.09 4.967-11.045 11.071-11.045 6.105 0 11.071 4.955 11.071 11.045zm-3.58-10.148c-.453-.334-.93-.638-1.426-.91l8.416-8.396.74 1.61-7.73 7.696z" fill="#929292"/>
    <path d="M16.992 36.094c-4.809 0-8.722-3.904-8.722-8.702s3.913-8.702 8.722-8.702c4.81 0 8.722 3.904 8.722 8.702s-3.913 8.702-8.722 8.702z" fill="#FFF"/>
    <path d="M16.992 36.875c-5.24 0-9.505-4.254-9.505-9.483 0-5.229 4.264-9.483 9.505-9.483 5.241 0 9.505 4.254 9.505 9.483 0 5.229-4.264 9.483-9.505 9.483zm0-17.403c-4.377 0-7.938 3.553-7.938 7.92s3.56 7.92 7.938 7.92 7.939-3.553 7.939-7.92-3.561-7.92-7.939-7.92z" fill="#929292"/>
    <path fill="#FFF" d="M16.992 23.027l1.608 2.618 2.993.717-2 2.334.242 3.061-2.843-1.175-2.843 1.175.242-3.061-1.999-2.334 2.993-.717z"/>
    <path d="M19.835 32.539a.784.784 0 0 1-.3-.06l-2.543-1.052-2.543 1.052a.785.785 0 0 1-1.08-.783l.216-2.738-1.789-2.089a.78.78 0 0 1 .413-1.267l2.677-.64 1.438-2.343a.783.783 0 0 1 1.336 0l1.438 2.342 2.677.641a.782.782 0 0 1 .413 1.267l-1.789 2.089.217 2.738a.78.78 0 0 1-.78.843zM16.992 29.8c.102 0 .204.02.3.06l1.662.687-.141-1.79a.78.78 0 0 1 .185-.568l1.169-1.365-1.75-.419a.783.783 0 0 1-.485-.352l-.94-1.53-.94 1.53a.783.783 0 0 1-.485.352l-1.75.419 1.17 1.365a.78.78 0 0 1 .185.569l-.142 1.79 1.662-.688a.783.783 0 0 1 .3-.06z" fill="#929292"/>
  </g>
</svg>
