<svg viewBox="0 0 30 40" xmlns="http://www.w3.org/2000/svg">
  <g fill-rule="nonzero" fill="none">
    <path fill="#FFAA47" d="M12.741 19.765l-.509 4.661H17l-.508-4.661"/>
    <path fill-opacity=".4" fill="#FFAA47" d="M26.055 34.294v-4.86H3.164v4.86M15.469 34.294H.848v4.925H28.37v-4.925h-6.443"/>
    <path d="M18.698 35.075a.768.768 0 0 1-.553-.229.786.786 0 0 1-.097-.986.748.748 0 0 1 .351-.287.787.787 0 0 1 1.02.423.789.789 0 0 1 .06.298.783.783 0 0 1-.781.781z" fill="#7A4D18"/>
    <path d="M21.512 28.7a4.28 4.28 0 0 0-4.274-4.274h-5.243A4.28 4.28 0 0 0 7.72 28.7v.734h13.791V28.7zM14.617.781h-8.89l1.363 12.33a7.561 7.561 0 0 0 7.527 6.731c3.865 0 7.101-2.893 7.527-6.731L23.492.78h-8.875z" fill="#FFAA47"/>
    <path fill="#FFAA47" d="M14.609 13.363l-2.56.911.075-2.717-1.657-2.153 2.606-.769 1.536-2.241 1.537 2.241 2.606.769-1.657 2.153.075 2.717z"/>
    <path d="M17.17 15.055a.78.78 0 0 1-.262-.045l-2.299-.817-2.298.817a.782.782 0 0 1-1.043-.758l.067-2.438L9.847 9.88a.781.781 0 0 1 .399-1.226l2.34-.69 1.379-2.012a.781.781 0 0 1 1.289 0l1.379 2.013 2.34.69a.782.782 0 0 1 .398 1.225l-1.487 1.934.067 2.438a.781.781 0 0 1-.781.803zm-2.56-2.473c.088 0 .176.015.261.045l1.486.529-.043-1.577a.782.782 0 0 1 .162-.498l.962-1.25-1.513-.446a.782.782 0 0 1-.424-.308l-.892-1.301-.891 1.301a.781.781 0 0 1-.424.308l-1.513.446.962 1.25c.11.142.167.318.162.498l-.044 1.577 1.486-.529a.785.785 0 0 1 .262-.045z" fill="#66441D"/>
    <path d="M28.37 33.513h-1.534v-4.08a.781.781 0 0 0-.781-.78h-3.762a5.063 5.063 0 0 0-4.59-4.987l-.38-3.49a8.347 8.347 0 0 0 5.215-5.24 6.21 6.21 0 0 0 3.376-1.742 6.206 6.206 0 0 0 1.763-3.676l.508-4.6a.781.781 0 0 0-.776-.868h-3.488l.348-3.184A.78.78 0 0 0 23.492 0H5.726a.78.78 0 0 0-.776.867l.352 3.183c0 .003 0-.003 0 0H1.81a.78.78 0 0 0-.777.867l.51 4.601a6.206 6.206 0 0 0 1.762 3.676 6.21 6.21 0 0 0 3.392 1.745 8.346 8.346 0 0 0 5.214 5.237l-.381 3.49a5.063 5.063 0 0 0-4.59 4.987H3.164a.781.781 0 0 0-.781.78v4.08H.848a.781.781 0 0 0-.78.781v4.925c0 .431.349.781.78.781H28.37c.432 0 .782-.35.782-.781v-4.925a.781.781 0 0 0-.782-.781zm-1.833-27.9l-.413 3.733a4.637 4.637 0 0 1-3.209 3.897l.006-.048.829-7.582h2.787zM4.412 12.092a4.637 4.637 0 0 1-1.317-2.746l-.413-3.733h2.793l.839 7.585.006.05a4.647 4.647 0 0 1-1.908-1.156zm3.455.934l-.976-8.82h11.286a.781.781 0 0 0 0-1.562H6.72l-.12-1.082H22.62l-1.253 11.462a6.782 6.782 0 0 1-6.75 6.037 6.78 6.78 0 0 1-6.751-6.035zm6.75 7.598c.398 0 .79-.028 1.173-.082l.34 3.103h-3.026l.338-3.103c.385.054.777.082 1.175.082zm-2.622 4.584h5.243a3.497 3.497 0 0 1 3.493 3.445H8.502a3.497 3.497 0 0 1 3.493-3.445zm15.594 13.23H1.63v-3.363h13.84a.781.781 0 0 0 0-1.562H3.945v-3.298h21.329v3.298h-3.347a.781.781 0 0 0 0 1.562h5.662v3.362z" fill="#66441D"/>
  </g>
</svg>
