<?xml version="1.0" encoding="utf-8"?>
<!-- Generator: Adobe Illustrator 16.0.4, SVG Export Plug-In . SVG Version: 6.00 Build 0)  -->
<!DOCTYPE svg PUBLIC "-//W3C//DTD SVG 1.1//EN" "http://www.w3.org/Graphics/SVG/1.1/DTD/svg11.dtd">
<svg version="1.1" id="Layer_1" xmlns="http://www.w3.org/2000/svg" xmlns:xlink="http://www.w3.org/1999/xlink" x="0px" y="0px"
	 width="504px" height="504px" viewBox="0 0 504 504" enable-background="new 0 0 504 504" xml:space="preserve">
<path fill="#586276" d="M35.583,246.996v6.115c0,1.113,0,1.947-0.278,2.225c-0.278,0.557-0.834,1.111-1.668,1.111
	c-0.278,0-0.556,0-1.112-0.277c-1.946-0.834-3.614-1.111-5.282-1.111c-3.336,0-6.116,1.111-8.34,3.613
	c-1.668,1.945-2.502,4.447-2.502,7.228c0,3.336,1.112,5.838,3.058,7.784c2.224,1.945,4.726,3.058,7.784,3.058
	c1.668,0,3.336-0.278,5.282-1.112c0.556-0.277,0.834-0.277,1.112-0.277c1.112,0,1.946,1.111,1.946,3.336v5.838
	c0,1.111,0,1.668,0,1.945c0,0.278-0.278,0.557-0.556,0.834c-0.834,0.557-2.224,1.112-4.448,1.668
	c-2.224,0.557-4.17,0.834-6.116,0.834c-4.726,0-8.896-1.111-13.066-3.613C3.892,281.745,0,275.073,0,266.455
	c0-7.506,2.78-13.344,8.062-18.069c4.726-4.17,10.286-6.116,16.958-6.116c1.946,0,3.892,0.278,5.837,0.556
	c1.946,0.556,3.336,1.112,4.17,1.668C35.305,244.772,35.583,245.606,35.583,246.996"/>
<path fill="#586276" d="M66.162,261.174c-1.112,1.111-1.946,2.502-2.224,3.892c-0.556,1.39-0.556,3.336-0.556,5.838v14.178
	c0,1.39-0.278,2.224-0.556,2.78c-0.278,0.277-1.39,0.556-2.78,0.556h-9.174c-1.39,0-2.224-0.278-2.78-0.556
	c-0.278-0.278-0.556-1.391-0.556-2.78v-38.363c0-1.39,0.278-2.224,0.556-2.78c0.278-0.278,1.39-0.556,2.78-0.556h9.174
	c1.39,0,2.224,0.278,2.78,0.556c0.278,0.278,0.556,1.39,0.556,2.78v4.17c1.668-2.78,3.892-4.726,6.116-6.116
	c2.224-1.112,5.004-1.946,8.618-1.946c1.39,0,2.224,0.278,2.502,0.556s0.556,1.39,0.556,2.78v7.783c0,1.113,0,1.947-0.278,2.502
	c-0.278,0.557-0.833,0.834-1.39,0.834C79.228,257.281,70.61,256.727,66.162,261.174"/>
<path fill="#586276" d="M110.085,241.714c8.896,0,15.846,2.78,20.85,8.062c4.169,4.449,6.116,9.73,6.116,15.845
	c0,7.229-2.78,13.066-8.062,17.792c-4.726,4.17-11.12,6.116-19.181,6.116c-5.004,0-9.73-1.112-14.178-3.336
	c-4.17-1.946-7.228-5.004-9.452-9.174c-1.946-3.614-3.058-7.506-3.058-11.954c0-6.95,2.78-12.788,8.062-17.513
	c2.78-2.224,6.116-3.892,10.007-5.004C104.247,242.271,107.305,241.714,110.085,241.714 M110.085,255.336
	c-2.78,0-5.282,1.111-7.228,3.059c-1.946,1.945-3.058,4.447-3.058,7.505c0,2.78,1.112,5.282,3.058,7.228
	c1.946,1.946,4.448,3.059,7.228,3.059s5.282-1.112,7.228-3.059c1.946-1.945,3.058-4.447,3.058-7.228s-1.112-5.282-3.058-7.228
	C115.367,256.447,112.865,255.336,110.085,255.336"/>
<path fill="#586276" d="M165.684,267.012l10.007-21.127c0.556-1.112,0.834-1.946,1.39-1.946c0.278-0.278,1.112-0.278,2.502-0.278
	h4.726c1.39,0,1.946,0,2.501,0.278c0.278,0.278,0.834,0.833,1.39,1.946l10.008,21.961l10.286-21.961
	c0.556-1.112,0.834-1.946,1.39-1.946c0.278-0.278,1.112-0.278,2.502-0.278h10.008c2.224,0,3.335,0.556,3.335,1.668
	c0,0.556-0.278,1.39-0.834,2.224l-20.015,38.363c-0.556,1.112-1.112,1.668-1.39,1.946c-0.278,0.277-1.112,0.277-2.224,0.277h-5.56
	c-1.39,0-1.946,0-2.502-0.277c-0.278-0.278-0.834-0.834-1.39-1.946l-10.007-22.239l-9.73,22.239
	c-0.556,1.112-0.834,1.946-1.39,2.224c-0.278,0.278-1.112,0.278-2.501,0.278h-5.56c-1.39,0-1.946,0-2.224-0.278
	c-0.278-0.277-0.834-0.834-1.39-1.945l-19.738-38.363c-0.556-1.112-0.834-1.668-0.834-2.224c0-0.556,0.278-1.112,0.834-1.39
	c0.556-0.278,1.39-0.278,2.502-0.278h10.564c1.39,0,1.946,0,2.502,0.278c0.278,0.278,0.834,0.834,1.39,1.946L165.684,267.012z"/>
<path fill="#586276" d="M263.537,283.135c-3.336,4.17-8.062,6.395-13.9,6.395c-3.892,0-7.228-0.834-10.842-2.78
	c-3.892-2.224-6.672-5.004-8.896-8.618c-1.946-3.613-3.058-7.783-3.058-12.231c0-7.506,2.78-13.622,8.062-18.347
	c4.17-3.614,9.174-5.56,14.456-5.56c2.78,0,5.56,0.556,7.784,1.39c2.225,0.834,4.17,2.502,6.395,4.448v-22.239
	c0-1.39,0.277-2.224,0.556-2.78c0.556-0.278,1.39-0.556,2.78-0.556h9.174c1.39,0,2.224,0.278,2.779,0.556
	c0.278,0.278,0.557,1.39,0.557,2.78v59.212c0,1.391-0.278,2.225-0.557,2.78c-0.277,0.278-1.39,0.556-2.779,0.556h-9.174
	c-1.391,0-2.225-0.277-2.78-0.556c-0.278-0.278-0.556-1.39-0.556-2.78V283.135z M253.807,255.613c-2.78,0-5.282,1.113-7.228,3.059
	s-3.058,4.447-3.058,7.228s1.112,5.004,3.058,6.95c1.946,1.945,4.448,3.058,7.228,3.058c2.78,0,5.282-1.112,7.229-3.058
	c1.945-1.946,3.058-4.448,3.058-7.229c0-2.779-1.112-5.281-3.058-7.227C259.089,256.727,256.587,255.613,253.807,255.613"/>
<path fill="#F0524D" d="M336.371,276.741h-23.63l-3.614,8.896c-0.556,1.112-0.834,1.946-1.111,2.225
	c-0.278,0.277-1.112,0.277-2.502,0.277h-11.12c-1.112,0-1.946,0-2.501-0.277c-0.557-0.278-0.834-0.834-0.834-1.391
	c0-0.277,0.277-1.111,0.555-1.945l22.796-59.213c0-0.278,0.278-0.556,0.278-0.834c0.277-0.834,0.556-1.112,0.834-1.39
	c0.277-0.278,1.111-0.278,2.224-0.278h13.344c1.39,0,2.224,0,2.502,0.278s0.834,0.834,1.112,2.224l22.517,59.213
	c0.278,1.111,0.557,1.668,0.557,1.945c0,0.557-0.278,1.112-0.834,1.391c-0.557,0.277-1.391,0.277-2.502,0.277h-11.398
	c-1.39,0-2.224,0-2.501-0.277c-0.278-0.278-0.835-0.834-1.112-2.225L336.371,276.741z M331.645,263.676l-6.949-20.85l-7.229,20.85
	H331.645z"/>
<path fill="#F0524D" d="M378.625,225.591v59.212c0,1.391-0.277,2.225-0.556,2.78c-0.278,0.278-1.39,0.556-2.779,0.556h-10.564
	c-1.39,0-2.224-0.277-2.779-0.556c-0.278-0.278-0.557-1.39-0.557-2.78v-59.212c0-1.39,0.278-2.224,0.557-2.78
	c0.277-0.278,1.39-0.556,2.779-0.556h10.564c1.39,0,2.224,0.278,2.779,0.556C378.348,223.367,378.625,224.201,378.625,225.591"/>
<path fill="#586276" d="M263.537,283.135c-3.336,4.17-8.062,6.395-13.9,6.395c-3.892,0-7.228-0.834-10.842-2.78
	c-3.892-2.224-6.672-5.004-8.896-8.618c-1.946-3.613-3.058-7.783-3.058-12.231c0-7.506,2.78-13.622,8.062-18.347
	c4.17-3.614,9.174-5.56,14.456-5.56c2.78,0,5.56,0.556,7.784,1.39c2.225,0.834,4.17,2.502,6.395,4.448v-22.239
	c0-1.39,0.277-2.224,0.556-2.78c0.556-0.278,1.39-0.556,2.78-0.556h9.174c1.39,0,2.224,0.278,2.779,0.556
	c0.278,0.278,0.557,1.39,0.557,2.78v59.212c0,1.391-0.278,2.225-0.557,2.78c-0.277,0.278-1.39,0.556-2.779,0.556h-9.174
	c-1.391,0-2.225-0.277-2.78-0.556c-0.278-0.278-0.556-1.39-0.556-2.78V283.135z M253.807,255.613c-2.78,0-5.282,1.113-7.228,3.059
	s-3.058,4.447-3.058,7.228s1.112,5.004,3.058,6.95c1.946,1.945,4.448,3.058,7.228,3.058c2.78,0,5.282-1.112,7.229-3.058
	c1.945-1.946,3.058-4.448,3.058-7.229c0-2.779-1.112-5.281-3.058-7.227C259.089,256.727,256.587,255.613,253.807,255.613"/>
<path fill="#F0524D" d="M502.332,275.352l-11.12-17.236c4.448-2.502,7.784-9.173,8.618-11.397c0.278-0.556,0.278-1.112-0.278-1.39
	l-10.285-13.065c-0.557-0.834-1.946-0.556-2.225,0.278c-1.668,4.448-5.003,8.896-5.003,8.896l-1.112-2.224
	c3.058-3.614,3.336-11.12,3.336-11.12c-0.278-15.29-8.618-20.571-15.567-22.239c-2.225-0.556-3.614,2.224-1.946,3.614
	c2.224,1.946,3.892,3.892,3.892,3.892c5.838,8.618,2.502,15.568,2.502,15.568c-1.111-1.946-4.726-4.17-10.563-6.394
	c-5.838-2.224-8.618-8.34-8.618-8.34l0,0c0,0-2.779,5.838-8.617,8.34c-5.838,2.224-9.452,4.448-10.563,6.394
	c0,0-3.336-6.95,2.501-15.568c0,0,1.391-1.668,3.336-3.614c1.668-1.668,0-4.17-1.945-3.614c-6.95,1.946-15.29,7.506-15.29,21.961
	c0,0,0,7.506,3.336,11.12l-1.111,2.224c0,0-3.336-4.726-5.004-8.896c-0.278-1.112-1.668-1.112-2.225-0.278l-10.285,13.065
	c-0.278,0.278-0.278,0.834-0.278,1.39c1.112,2.224,4.448,9.174,8.618,11.397l-11.12,17.236c0,0-2.502,3.613-1.112,5.281
	c1.391,1.391,4.17,1.112,4.17,1.112s13.622-3.336,17.514-3.058c0,0,4.727,20.016,26.132,20.016h3.336
	c21.405,0,26.131-20.016,26.131-20.016c3.892,0,17.514,3.058,17.514,3.058s2.78,0.556,4.17-1.112
	C504.834,278.965,502.332,275.352,502.332,275.352 M466.749,285.915c-3.892,1.946-8.062,2.78-12.51,2.78
	c-4.17,0-8.34-0.834-11.953-2.502c-1.668-0.557-2.225-2.502-1.391-4.17c0.557-1.668,2.502-2.225,4.17-1.391
	c6.116,2.78,13.344,2.78,19.182-0.277c1.39-0.834,3.336,0,4.17,1.39C468.973,283.135,468.139,285.081,466.749,285.915
	 M468.973,273.684c-3.336,0-6.394-1.391-8.617-3.336l0,0c-1.391-1.391-3.614-2.225-5.838-2.225c-2.225,0-4.448,0.834-5.838,2.502
	l0,0c-2.225,1.946-5.282,3.336-8.34,3.336c-6.95,0-12.51-5.56-12.51-12.51v-1.945c0,0,11.397-3.059,26.965-3.059
	c15.568,0,26.688,3.336,26.688,3.336v1.668C481.205,268.123,475.645,273.684,468.973,273.684"/>
<path fill="#F0524D" d="M471.68,262.393l-7.788,2.087c-0.536,0.144-0.733,0.484-0.59,1.021c0.072,0.27,0.485,0.734,0.754,0.662
	l0.268-0.072l7.788-2.086c0.536-0.145,0.733-0.484,0.59-1.021C472.897,262.642,472.216,262.249,471.68,262.393"/>
<path fill="#F0524D" d="M444.311,264.46l-7.786-2.086c-0.537-0.145-0.878,0.053-1.021,0.589c-0.072,0.27,0.053,0.878,0.32,0.95
	l0.27,0.071l7.786,2.087c0.538,0.144,0.878-0.053,1.021-0.59C445.242,265.284,444.849,264.604,444.311,264.46"/>
</svg>
