<?xml version="1.0" encoding="utf-8"?>
<!-- Generator: Adobe Illustrator 17.1.0, SVG Export Plug-In . SVG Version: 6.00 Build 0)  -->
<!DOCTYPE svg PUBLIC "-//W3C//DTD SVG 1.1//EN" "http://www.w3.org/Graphics/SVG/1.1/DTD/svg11.dtd">
<svg version="1.1" id="Layer_1" xmlns="http://www.w3.org/2000/svg" xmlns:xlink="http://www.w3.org/1999/xlink" x="0px" y="0px"
	 viewBox="0 0 181.3 33.4" enable-background="new 0 0 181.3 33.4" xml:space="preserve">
<path fill="#586276" d="M12.8,14.9v2.2c0,0.4,0,0.7-0.1,0.8c-0.1,0.2-0.3,0.4-0.6,0.4c-0.1,0-0.2,0-0.4-0.1
	c-0.7-0.3-1.3-0.4-1.9-0.4c-1.2,0-2.2,0.4-3,1.3c-0.6,0.7-0.9,1.6-0.9,2.6c0,1.2,0.4,2.1,1.1,2.8c0.8,0.7,1.7,1.1,2.8,1.1
	c0.6,0,1.2-0.1,1.9-0.4c0.2-0.1,0.3-0.1,0.4-0.1c0.4,0,0.7,0.4,0.7,1.2v2.1c0,0.4,0,0.6,0,0.7c0,0.1-0.1,0.2-0.2,0.3
	c-0.3,0.2-0.8,0.4-1.6,0.6c-0.8,0.2-1.5,0.3-2.2,0.3c-1.7,0-3.2-0.4-4.7-1.3c-2.7-1.6-4.1-4-4.1-7.1c0-2.7,1-4.8,2.9-6.5
	c1.7-1.5,3.7-2.2,6.1-2.2c0.7,0,1.4,0.1,2.1,0.2c0.7,0.2,1.2,0.4,1.5,0.6C12.7,14.1,12.8,14.4,12.8,14.9"/>
<path fill="#586276" d="M23.8,20c-0.4,0.4-0.7,0.9-0.8,1.4c-0.2,0.5-0.2,1.2-0.2,2.1v5.1c0,0.5-0.1,0.8-0.2,1
	c-0.1,0.1-0.5,0.2-1,0.2h-3.3c-0.5,0-0.8-0.1-1-0.2c-0.1-0.1-0.2-0.5-0.2-1V14.8c0-0.5,0.1-0.8,0.2-1c0.1-0.1,0.5-0.2,1-0.2h3.3
	c0.5,0,0.8,0.1,1,0.2c0.1,0.1,0.2,0.5,0.2,1v1.5c0.6-1,1.4-1.7,2.2-2.2c0.8-0.4,1.8-0.7,3.1-0.7c0.5,0,0.8,0.1,0.9,0.2
	c0.1,0.1,0.2,0.5,0.2,1v2.8c0,0.4,0,0.7-0.1,0.9c-0.1,0.2-0.3,0.3-0.5,0.3C28.5,18.6,25.4,18.4,23.8,20"/>
<path fill="#586276" d="M39.6,13c3.2,0,5.7,1,7.5,2.9c1.5,1.6,2.2,3.5,2.2,5.7c0,2.6-1,4.7-2.9,6.4c-1.7,1.5-4,2.2-6.9,2.2
	c-1.8,0-3.5-0.4-5.1-1.2c-1.5-0.7-2.6-1.8-3.4-3.3c-0.7-1.3-1.1-2.7-1.1-4.3c0-2.5,1-4.6,2.9-6.3c1-0.8,2.2-1.4,3.6-1.8
	C37.5,13.2,38.6,13,39.6,13 M39.6,17.9c-1,0-1.9,0.4-2.6,1.1c-0.7,0.7-1.1,1.6-1.1,2.7c0,1,0.4,1.9,1.1,2.6c0.7,0.7,1.6,1.1,2.6,1.1
	c1,0,1.9-0.4,2.6-1.1c0.7-0.7,1.1-1.6,1.1-2.6c0-1-0.4-1.9-1.1-2.6C41.5,18.3,40.6,17.9,39.6,17.9"/>
<path fill="#586276" d="M59.6,22.1l3.6-7.6c0.2-0.4,0.3-0.7,0.5-0.7c0.1-0.1,0.4-0.1,0.9-0.1h1.7c0.5,0,0.7,0,0.9,0.1
	c0.1,0.1,0.3,0.3,0.5,0.7l3.6,7.9l3.7-7.9c0.2-0.4,0.3-0.7,0.5-0.7c0.1-0.1,0.4-0.1,0.9-0.1H80c0.8,0,1.2,0.2,1.2,0.6
	c0,0.2-0.1,0.5-0.3,0.8l-7.2,13.8c-0.2,0.4-0.4,0.6-0.5,0.7c-0.1,0.1-0.4,0.1-0.8,0.1h-2c-0.5,0-0.7,0-0.9-0.1
	c-0.1-0.1-0.3-0.3-0.5-0.7l-3.6-8l-3.5,8c-0.2,0.4-0.3,0.7-0.5,0.8c-0.1,0.1-0.4,0.1-0.9,0.1h-2c-0.5,0-0.7,0-0.8-0.1
	c-0.1-0.1-0.3-0.3-0.5-0.7l-7.1-13.8c-0.2-0.4-0.3-0.6-0.3-0.8c0-0.2,0.1-0.4,0.3-0.5c0.2-0.1,0.5-0.1,0.9-0.1h3.8
	c0.5,0,0.7,0,0.9,0.1c0.1,0.1,0.3,0.3,0.5,0.7L59.6,22.1z"/>
<path fill="#586276" d="M94.8,27.9c-1.2,1.5-2.9,2.3-5,2.3c-1.4,0-2.6-0.3-3.9-1c-1.4-0.8-2.4-1.8-3.2-3.1c-0.7-1.3-1.1-2.8-1.1-4.4
	c0-2.7,1-4.9,2.9-6.6c1.5-1.3,3.3-2,5.2-2c1,0,2,0.2,2.8,0.5c0.8,0.3,1.5,0.9,2.3,1.6v-8c0-0.5,0.1-0.8,0.2-1C95.2,6.1,95.5,6,96,6
	h3.3c0.5,0,0.8,0.1,1,0.2c0.1,0.1,0.2,0.5,0.2,1v21.3c0,0.5-0.1,0.8-0.2,1c-0.1,0.1-0.5,0.2-1,0.2H96c-0.5,0-0.8-0.1-1-0.2
	c-0.1-0.1-0.2-0.5-0.2-1V27.9z M91.3,18c-1,0-1.9,0.4-2.6,1.1c-0.7,0.7-1.1,1.6-1.1,2.6c0,1,0.4,1.8,1.1,2.5
	c0.7,0.7,1.6,1.1,2.6,1.1c1,0,1.9-0.4,2.6-1.1c0.7-0.7,1.1-1.6,1.1-2.6c0-1-0.4-1.9-1.1-2.6C93.2,18.4,92.3,18,91.3,18"/>
<path fill="#F0524D" d="M121,25.6h-8.5l-1.3,3.2c-0.2,0.4-0.3,0.7-0.4,0.8c-0.1,0.1-0.4,0.1-0.9,0.1h-4c-0.4,0-0.7,0-0.9-0.1
	c-0.2-0.1-0.3-0.3-0.3-0.5c0-0.1,0.1-0.4,0.2-0.7l8.2-21.3c0-0.1,0.1-0.2,0.1-0.3c0.1-0.3,0.2-0.4,0.3-0.5c0.1-0.1,0.4-0.1,0.8-0.1
	h4.8c0.5,0,0.8,0,0.9,0.1c0.1,0.1,0.3,0.3,0.4,0.8l8.1,21.3c0.1,0.4,0.2,0.6,0.2,0.7c0,0.2-0.1,0.4-0.3,0.5
	c-0.2,0.1-0.5,0.1-0.9,0.1h-4.1c-0.5,0-0.8,0-0.9-0.1c-0.1-0.1-0.3-0.3-0.4-0.8L121,25.6z M119.3,20.9l-2.5-7.5l-2.6,7.5H119.3z"/>
<path fill="#F0524D" d="M136.2,7.2v21.3c0,0.5-0.1,0.8-0.2,1c-0.1,0.1-0.5,0.2-1,0.2h-3.8c-0.5,0-0.8-0.1-1-0.2
	c-0.1-0.1-0.2-0.5-0.2-1V7.2c0-0.5,0.1-0.8,0.2-1c0.1-0.1,0.5-0.2,1-0.2h3.8c0.5,0,0.8,0.1,1,0.2C136.1,6.4,136.2,6.7,136.2,7.2"/>
<path fill="#586276" d="M94.8,27.9c-1.2,1.5-2.9,2.3-5,2.3c-1.4,0-2.6-0.3-3.9-1c-1.4-0.8-2.4-1.8-3.2-3.1c-0.7-1.3-1.1-2.8-1.1-4.4
	c0-2.7,1-4.9,2.9-6.6c1.5-1.3,3.3-2,5.2-2c1,0,2,0.2,2.8,0.5c0.8,0.3,1.5,0.9,2.3,1.6v-8c0-0.5,0.1-0.8,0.2-1C95.2,6.1,95.5,6,96,6
	h3.3c0.5,0,0.8,0.1,1,0.2c0.1,0.1,0.2,0.5,0.2,1v21.3c0,0.5-0.1,0.8-0.2,1c-0.1,0.1-0.5,0.2-1,0.2H96c-0.5,0-0.8-0.1-1-0.2
	c-0.1-0.1-0.2-0.5-0.2-1V27.9z M91.3,18c-1,0-1.9,0.4-2.6,1.1c-0.7,0.7-1.1,1.6-1.1,2.6c0,1,0.4,1.8,1.1,2.5
	c0.7,0.7,1.6,1.1,2.6,1.1c1,0,1.9-0.4,2.6-1.1c0.7-0.7,1.1-1.6,1.1-2.6c0-1-0.4-1.9-1.1-2.6C93.2,18.4,92.3,18,91.3,18"/>
<path fill="#F0524D" d="M180.7,25.1l-4-6.2c1.6-0.9,2.8-3.3,3.1-4.1c0.1-0.2,0.1-0.4-0.1-0.5l-3.7-4.7c-0.2-0.3-0.7-0.2-0.8,0.1
	c-0.6,1.6-1.8,3.2-1.8,3.2l-0.4-0.8c1.1-1.3,1.2-4,1.2-4c-0.1-5.5-3.1-7.4-5.6-8c-0.8-0.2-1.3,0.8-0.7,1.3c0.8,0.7,1.4,1.4,1.4,1.4
	c2.1,3.1,0.9,5.6,0.9,5.6c-0.4-0.7-1.7-1.5-3.8-2.3c-2.1-0.8-3.1-3-3.1-3h0c0,0-1,2.1-3.1,3c-2.1,0.8-3.4,1.6-3.8,2.3
	c0,0-1.2-2.5,0.9-5.6c0,0,0.5-0.6,1.2-1.3c0.6-0.6,0-1.5-0.7-1.3c-2.5,0.7-5.5,2.7-5.5,7.9c0,0,0,2.7,1.2,4l-0.4,0.8
	c0,0-1.2-1.7-1.8-3.2c-0.1-0.4-0.6-0.4-0.8-0.1l-3.7,4.7c-0.1,0.1-0.1,0.3-0.1,0.5c0.4,0.8,1.6,3.3,3.1,4.1l-4,6.2
	c0,0-0.9,1.3-0.4,1.9c0.5,0.5,1.5,0.4,1.5,0.4s4.9-1.2,6.3-1.1c0,0,1.7,7.2,9.4,7.2h1.2c7.7,0,9.4-7.2,9.4-7.2
	c1.4,0,6.3,1.1,6.3,1.1s1,0.2,1.5-0.4C181.6,26.4,180.7,25.1,180.7,25.1 M167.9,28.9c-1.4,0.7-2.9,1-4.5,1c-1.5,0-3-0.3-4.3-0.9
	c-0.6-0.2-0.8-0.9-0.5-1.5c0.2-0.6,0.9-0.8,1.5-0.5c2.2,1,4.8,1,6.9-0.1c0.5-0.3,1.2,0,1.5,0.5C168.7,27.9,168.4,28.6,167.9,28.9
	 M168.7,24.5c-1.2,0-2.3-0.5-3.1-1.2v0c-0.5-0.5-1.3-0.8-2.1-0.8c-0.8,0-1.6,0.3-2.1,0.9v0c-0.8,0.7-1.9,1.2-3,1.2
	c-2.5,0-4.5-2-4.5-4.5l0-0.7c0,0,4.1-1.1,9.7-1.1s9.6,1.2,9.6,1.2l0,0.6C173.1,22.5,171.1,24.5,168.7,24.5"/>
<path fill="#F0524D" d="M169.8,20.8l-2.9,0c-0.2,0-0.3,0.1-0.3,0.3c0,0.1,0.1,0.3,0.2,0.3c0,0,0.1,0,0.1,0l2.9,0
	c0.2,0,0.3-0.1,0.3-0.3C170.2,21,170,20.8,169.8,20.8"/>
<path fill="#F0524D" d="M159.8,20.8l-2.9,0c-0.2,0-0.3,0.1-0.3,0.3c0,0.1,0.1,0.3,0.2,0.3c0,0,0.1,0,0.1,0l2.9,0
	c0.2,0,0.3-0.1,0.3-0.3C160.2,21,160,20.8,159.8,20.8"/>
</svg>
