<?xml version="1.0" encoding="utf-8"?>
<!-- Generator: Adobe Illustrator 19.1.0, SVG Export Plug-In . SVG Version: 6.00 Build 0)  -->
<svg version="1.1" id="Layer_1" xmlns="http://www.w3.org/2000/svg" xmlns:xlink="http://www.w3.org/1999/xlink" x="0px" y="0px"
	 viewBox="0 0 303 280" style="enable-background:new 0 0 303 280;" xml:space="preserve">
<style type="text/css">
	.st0{fill:#F0524D;}
</style>
<path class="st0" d="M296.6,208.8l-33.4-51.7c13.3-7.5,23.4-27.5,25.9-34.2c0.8-1.7,0.8-3.3-0.8-4.2l-30.9-39.2
	c-1.7-2.5-5.8-1.7-6.7,0.8c-5,13.3-15,26.7-15,26.7l-3.3-6.7c9.2-10.8,10-33.4,10-33.4C241.5,21,216.5,5.2,195.6,0.2
	c-6.7-1.7-10.8,6.7-5.8,10.8c6.7,5.9,11.7,11.7,11.7,11.7C219,48.6,209,69.4,209,69.4c-3.3-5.8-14.2-12.5-31.7-19.2
	s-25.9-25-25.9-25l0,0c0,0-8.3,17.5-25.9,25C108,56.9,97.1,63.5,93.8,69.4c0,0-10-20.9,7.5-46.7c0,0,4.2-5,10-10.8
	c5-5,0-12.5-5.8-10.8C84.6,6.9,59.6,23.6,59.6,67c0,0,0,22.5,10,33.4l-3.3,6.7c0,0-10-14.2-15-26.7c-0.8-3.3-5-3.3-6.7-0.8
	l-30.9,39.2c-0.8,0.8-0.8,2.5-0.8,4.2c3.3,6.7,13.4,27.5,25.9,34.2L5.4,208.9c0,0-7.5,10.8-3.3,15.9c4.2,4.2,12.5,3.3,12.5,3.3
	s40.9-10,52.6-9.2c0,0,14.2,60.1,78.4,60.1h10c64.2,0,78.4-60.1,78.4-60.1c11.7,0,52.6,9.2,52.6,9.2s8.3,1.7,12.5-3.3
	C304.1,219.6,296.6,208.8,296.6,208.8 M189.8,240.5c-11.7,5.8-24.2,8.3-37.5,8.3c-12.5,0-25-2.5-35.9-7.5c-5-1.7-6.7-7.5-4.2-12.5
	c1.7-5,7.5-6.7,12.5-4.2c18.4,8.3,40,8.3,57.6-0.8c4.2-2.5,10,0,12.5,4.2C196.5,232.1,194,238,189.8,240.5 M196.5,203.8
	c-10,0-19.2-4.2-25.9-10l0,0c-4.2-4.2-10.8-6.7-17.5-6.7c-6.7,0-13.4,2.5-17.5,7.5l0,0c-6.7,5.8-15.9,10-25,10
	c-20.9,0-37.5-16.7-37.5-37.5v-5.8c0,0,34.2-9.2,80.9-9.2s80.1,10,80.1,10v5C233.2,187.1,216.5,203.8,196.5,203.8"/>
</svg>
