<?xml version="1.0" encoding="utf-8"?>
<!-- Generator: Adobe Illustrator 17.1.0, SVG Export Plug-In . SVG Version: 6.00 Build 0)  -->
<!DOCTYPE svg PUBLIC "-//W3C//DTD SVG 1.1//EN" "http://www.w3.org/Graphics/SVG/1.1/DTD/svg11.dtd">
<svg version="1.1" id="Layer_1" xmlns="http://www.w3.org/2000/svg" xmlns:xlink="http://www.w3.org/1999/xlink" x="0px" y="0px"
	 viewBox="0 205.8 503.7 92.9" enable-background="new 0 205.8 503.7 92.9" xml:space="preserve">
<path fill="#586276" d="M35.6,247v6.1c0,1.1,0,1.9-0.3,2.2c-0.3,0.6-0.8,1.1-1.7,1.1c-0.3,0-0.6,0-1.1-0.3c-1.9-0.8-3.6-1.1-5.3-1.1
	c-3.3,0-6.1,1.1-8.3,3.6c-1.7,1.9-2.5,4.4-2.5,7.2c0,3.3,1.1,5.8,3.1,7.8c2.2,1.9,4.7,3.1,7.8,3.1c1.7,0,3.3-0.3,5.3-1.1
	c0.6-0.3,0.8-0.3,1.1-0.3c1.1,0,1.9,1.1,1.9,3.3v5.8c0,1.1,0,1.7,0,1.9c0,0.3-0.3,0.6-0.6,0.8c-0.8,0.6-2.2,1.1-4.4,1.7
	c-2.2,0.6-4.2,0.8-6.1,0.8c-4.7,0-8.9-1.1-13.1-3.6C3.9,281.7,0,275.1,0,266.5c0-7.5,2.8-13.3,8.1-18.1c4.7-4.2,10.3-6.1,17-6.1
	c1.9,0,3.9,0.3,5.8,0.6c1.9,0.6,3.3,1.1,4.2,1.7C35.3,244.8,35.6,245.6,35.6,247"/>
<path fill="#586276" d="M66.2,261.2c-1.1,1.1-1.9,2.5-2.2,3.9c-0.6,1.4-0.6,3.3-0.6,5.8v14.2c0,1.4-0.3,2.2-0.6,2.8
	c-0.3,0.3-1.4,0.6-2.8,0.6h-9.2c-1.4,0-2.2-0.3-2.8-0.6c-0.3-0.3-0.6-1.4-0.6-2.8v-38.4c0-1.4,0.3-2.2,0.6-2.8
	c0.3-0.3,1.4-0.6,2.8-0.6H60c1.4,0,2.2,0.3,2.8,0.6c0.3,0.3,0.6,1.4,0.6,2.8v4.2c1.7-2.8,3.9-4.7,6.1-6.1c2.2-1.1,5-1.9,8.6-1.9
	c1.4,0,2.2,0.3,2.5,0.6s0.6,1.4,0.6,2.8v7.8c0,1.1,0,1.9-0.3,2.5c-0.3,0.6-0.8,0.8-1.4,0.8C79.2,257.3,70.6,256.7,66.2,261.2"/>
<path fill="#586276" d="M110.1,241.7c8.9,0,15.8,2.8,20.8,8.1c4.2,4.4,6.1,9.7,6.1,15.8c0,7.2-2.8,13.1-8.1,17.8
	c-4.7,4.2-11.1,6.1-19.2,6.1c-5,0-9.7-1.1-14.2-3.3c-4.2-1.9-7.2-5-9.5-9.2c-1.9-3.6-3.1-7.5-3.1-12c0-7,2.8-12.8,8.1-17.5
	c2.8-2.2,6.1-3.9,10-5C104.2,242.3,107.3,241.7,110.1,241.7 M110.1,255.3c-2.8,0-5.3,1.1-7.2,3.1c-1.9,1.9-3.1,4.4-3.1,7.5
	c0,2.8,1.1,5.3,3.1,7.2c1.9,1.9,4.4,3.1,7.2,3.1s5.3-1.1,7.2-3.1c1.9-1.9,3.1-4.4,3.1-7.2s-1.1-5.3-3.1-7.2
	C115.4,256.4,112.9,255.3,110.1,255.3"/>
<path fill="#586276" d="M165.7,267l10-21.1c0.6-1.1,0.8-1.9,1.4-1.9c0.3-0.3,1.1-0.3,2.5-0.3h4.7c1.4,0,1.9,0,2.5,0.3
	c0.3,0.3,0.8,0.8,1.4,1.9l10,22l10.3-22c0.6-1.1,0.8-1.9,1.4-1.9c0.3-0.3,1.1-0.3,2.5-0.3h10c2.2,0,3.3,0.6,3.3,1.7
	c0,0.6-0.3,1.4-0.8,2.2l-20,38.4c-0.6,1.1-1.1,1.7-1.4,1.9c-0.3,0.3-1.1,0.3-2.2,0.3h-5.6c-1.4,0-1.9,0-2.5-0.3
	c-0.3-0.3-0.8-0.8-1.4-1.9l-10-22.2l-9.7,22.2c-0.6,1.1-0.8,1.9-1.4,2.2c-0.3,0.3-1.1,0.3-2.5,0.3h-5.6c-1.4,0-1.9,0-2.2-0.3
	c-0.3-0.3-0.8-0.8-1.4-1.9l-19.7-38.4c-0.6-1.1-0.8-1.7-0.8-2.2s0.3-1.1,0.8-1.4s1.4-0.3,2.5-0.3h10.6c1.4,0,1.9,0,2.5,0.3
	c0.3,0.3,0.8,0.8,1.4,1.9L165.7,267z"/>
<path fill="#586276" d="M263.5,283.1c-3.3,4.2-8.1,6.4-13.9,6.4c-3.9,0-7.2-0.8-10.8-2.8c-3.9-2.2-6.7-5-8.9-8.6
	c-1.9-3.6-3.1-7.8-3.1-12.2c0-7.5,2.8-13.6,8.1-18.3c4.2-3.6,9.2-5.6,14.5-5.6c2.8,0,5.6,0.6,7.8,1.4c2.2,0.8,4.2,2.5,6.4,4.4v-22.2
	c0-1.4,0.3-2.2,0.6-2.8c0.6-0.3,1.4-0.6,2.8-0.6h9.2c1.4,0,2.2,0.3,2.8,0.6c0.3,0.3,0.6,1.4,0.6,2.8v59.2c0,1.4-0.3,2.2-0.6,2.8
	c-0.3,0.3-1.4,0.6-2.8,0.6h-9.2c-1.4,0-2.2-0.3-2.8-0.6c-0.3-0.3-0.6-1.4-0.6-2.8L263.5,283.1L263.5,283.1z M253.8,255.6
	c-2.8,0-5.3,1.1-7.2,3.1s-3.1,4.4-3.1,7.2s1.1,5,3.1,7c1.9,1.9,4.4,3.1,7.2,3.1s5.3-1.1,7.2-3.1c1.9-1.9,3.1-4.4,3.1-7.2
	c0-2.8-1.1-5.3-3.1-7.2C259.1,256.7,256.6,255.6,253.8,255.6"/>
<path fill="#F0524D" d="M336.4,276.7h-23.6l-3.6,8.9c-0.6,1.1-0.8,1.9-1.1,2.2c-0.3,0.3-1.1,0.3-2.5,0.3h-11.1c-1.1,0-1.9,0-2.5-0.3
	c-0.6-0.3-0.8-0.8-0.8-1.4c0-0.3,0.3-1.1,0.6-1.9l22.8-59.2c0-0.3,0.3-0.6,0.3-0.8c0.3-0.8,0.6-1.1,0.8-1.4c0.3-0.3,1.1-0.3,2.2-0.3
	h13.3c1.4,0,2.2,0,2.5,0.3s0.8,0.8,1.1,2.2l22.5,59.2c0.3,1.1,0.6,1.7,0.6,1.9c0,0.6-0.3,1.1-0.8,1.4c-0.6,0.3-1.4,0.3-2.5,0.3H343
	c-1.4,0-2.2,0-2.5-0.3c-0.3-0.3-0.8-0.8-1.1-2.2L336.4,276.7z M331.6,263.7l-6.9-20.9l-7.2,20.9H331.6z"/>
<path fill="#F0524D" d="M378.6,225.6v59.2c0,1.4-0.3,2.2-0.6,2.8c-0.3,0.3-1.4,0.6-2.8,0.6h-10.6c-1.4,0-2.2-0.3-2.8-0.6
	c-0.3-0.3-0.6-1.4-0.6-2.8v-59.2c0-1.4,0.3-2.2,0.6-2.8c0.3-0.3,1.4-0.6,2.8-0.6h10.6c1.4,0,2.2,0.3,2.8,0.6
	C378.3,223.4,378.6,224.2,378.6,225.6"/>
<path fill="#586276" d="M263.5,283.1c-3.3,4.2-8.1,6.4-13.9,6.4c-3.9,0-7.2-0.8-10.8-2.8c-3.9-2.2-6.7-5-8.9-8.6
	c-1.9-3.6-3.1-7.8-3.1-12.2c0-7.5,2.8-13.6,8.1-18.3c4.2-3.6,9.2-5.6,14.5-5.6c2.8,0,5.6,0.6,7.8,1.4c2.2,0.8,4.2,2.5,6.4,4.4v-22.2
	c0-1.4,0.3-2.2,0.6-2.8c0.6-0.3,1.4-0.6,2.8-0.6h9.2c1.4,0,2.2,0.3,2.8,0.6c0.3,0.3,0.6,1.4,0.6,2.8v59.2c0,1.4-0.3,2.2-0.6,2.8
	c-0.3,0.3-1.4,0.6-2.8,0.6h-9.2c-1.4,0-2.2-0.3-2.8-0.6c-0.3-0.3-0.6-1.4-0.6-2.8L263.5,283.1L263.5,283.1z M253.8,255.6
	c-2.8,0-5.3,1.1-7.2,3.1s-3.1,4.4-3.1,7.2s1.1,5,3.1,7c1.9,1.9,4.4,3.1,7.2,3.1s5.3-1.1,7.2-3.1c1.9-1.9,3.1-4.4,3.1-7.2
	c0-2.8-1.1-5.3-3.1-7.2C259.1,256.7,256.6,255.6,253.8,255.6"/>
<path fill="#F0524D" d="M502.3,275.4l-11.1-17.2c4.4-2.5,7.8-9.2,8.6-11.4c0.3-0.6,0.3-1.1-0.3-1.4l-10.3-13.1
	c-0.6-0.8-1.9-0.6-2.2,0.3c-1.7,4.4-5,8.9-5,8.9l-1.1-2.2c3.1-3.6,3.3-11.1,3.3-11.1c-0.3-15.3-8.6-20.6-15.6-22.2
	c-2.2-0.6-3.6,2.2-1.9,3.6c2.2,1.9,3.9,3.9,3.9,3.9c5.8,8.6,2.5,15.6,2.5,15.6c-1.1-1.9-4.7-4.2-10.6-6.4c-5.8-2.2-8.6-8.3-8.6-8.3
	l0,0c0,0-2.8,5.8-8.6,8.3c-5.8,2.2-9.5,4.4-10.6,6.4c0,0-3.3-6.9,2.5-15.6c0,0,1.4-1.7,3.3-3.6c1.7-1.7,0-4.2-1.9-3.6
	c-7,1.9-15.3,7.5-15.3,22c0,0,0,7.5,3.3,11.1l-1.1,2.2c0,0-3.3-4.7-5-8.9c-0.3-1.1-1.7-1.1-2.2-0.3l-10.3,13.1
	c-0.3,0.3-0.3,0.8-0.3,1.4c1.1,2.2,4.4,9.2,8.6,11.4l-11.1,17.2c0,0-2.5,3.6-1.1,5.3c1.4,1.4,4.2,1.1,4.2,1.1s13.6-3.3,17.5-3.1
	c0,0,4.7,20,26.1,20h3.3c21.4,0,26.1-20,26.1-20c3.9,0,17.5,3.1,17.5,3.1s2.8,0.6,4.2-1.1C504.8,279,502.3,275.4,502.3,275.4
	 M466.7,285.9c-3.9,1.9-8.1,2.8-12.5,2.8c-4.2,0-8.3-0.8-12-2.5c-1.7-0.6-2.2-2.5-1.4-4.2c0.6-1.7,2.5-2.2,4.2-1.4
	c6.1,2.8,13.3,2.8,19.2-0.3c1.4-0.8,3.3,0,4.2,1.4C469,283.1,468.1,285.1,466.7,285.9 M469,273.7c-3.3,0-6.4-1.4-8.6-3.3l0,0
	c-1.4-1.4-3.6-2.2-5.8-2.2c-2.2,0-4.4,0.8-5.8,2.5l0,0c-2.2,1.9-5.3,3.3-8.3,3.3c-7,0-12.5-5.6-12.5-12.5v-1.9c0,0,11.4-3.1,27-3.1
	s26.7,3.3,26.7,3.3v1.7C481.2,268.1,475.6,273.7,469,273.7"/>
<path fill="#F0524D" d="M471.7,262.4l-7.8,2.1c-0.5,0.1-0.7,0.5-0.6,1c0.1,0.3,0.5,0.7,0.8,0.7l0.3-0.1l7.8-2.1
	c0.5-0.1,0.7-0.5,0.6-1C472.9,262.6,472.2,262.2,471.7,262.4"/>
<path fill="#F0524D" d="M444.3,264.5l-7.8-2.1c-0.5-0.1-0.9,0.1-1,0.6c-0.1,0.3,0.1,0.9,0.3,1l0.3,0.1l7.8,2.1
	c0.5,0.1,0.9-0.1,1-0.6C445.2,265.3,444.8,264.6,444.3,264.5"/>
</svg>
