<?xml version="1.0" encoding="utf-8"?>
<!-- Generator: Adobe Illustrator 17.1.0, SVG Export Plug-In . SVG Version: 6.00 Build 0)  -->
<!DOCTYPE svg PUBLIC "-//W3C//DTD SVG 1.1//EN" "http://www.w3.org/Graphics/SVG/1.1/DTD/svg11.dtd">
<svg version="1.1" id="Layer_1" xmlns="http://www.w3.org/2000/svg" xmlns:xlink="http://www.w3.org/1999/xlink" x="0px" y="0px"
	 viewBox="0 245 599.7 110.6" enable-background="new 0 245 599.7 110.6" xml:space="preserve">
<path fill="#586276" d="M42.4,294v7.3c0,1.3,0,2.3-0.3,2.6c-0.3,0.7-1,1.3-2,1.3c-0.3,0-0.7,0-1.3-0.3c-2.3-1-4.3-1.3-6.3-1.3
	c-4,0-7.3,1.3-9.9,4.3c-2,2.3-3,5.3-3,8.6c0,4,1.3,6.9,3.6,9.3c2.6,2.3,5.6,3.6,9.3,3.6c2,0,4-0.3,6.3-1.3c0.7-0.3,1-0.3,1.3-0.3
	c1.3,0,2.3,1.3,2.3,4v6.9c0,1.3,0,2,0,2.3c0,0.3-0.3,0.7-0.7,1c-1,0.7-2.6,1.3-5.3,2c-2.6,0.7-5,1-7.3,1c-5.6,0-10.6-1.3-15.6-4.3
	C4.6,335.4,0,327.5,0,317.2c0-8.9,3.3-15.9,9.6-21.5c5.6-5,12.2-7.3,20.2-7.3c2.3,0,4.6,0.3,6.9,0.7c2.3,0.7,4,1.3,5,2
	C42,291.4,42.4,292.4,42.4,294"/>
<path fill="#586276" d="M78.8,310.9c-1.3,1.3-2.3,3-2.6,4.6c-0.7,1.7-0.7,4-0.7,6.9v16.9c0,1.7-0.3,2.6-0.7,3.3
	c-0.3,0.3-1.7,0.7-3.3,0.7H60.6c-1.7,0-2.6-0.3-3.3-0.7c-0.3-0.3-0.7-1.7-0.7-3.3v-45.7c0-1.7,0.3-2.6,0.7-3.3
	c0.3-0.3,1.7-0.7,3.3-0.7h10.9c1.7,0,2.6,0.3,3.3,0.7c0.3,0.3,0.7,1.7,0.7,3.3v5c2-3.3,4.6-5.6,7.3-7.3c2.6-1.3,6-2.3,10.3-2.3
	c1.7,0,2.6,0.3,3,0.7c0.3,0.3,0.7,1.7,0.7,3.3v9.3c0,1.3,0,2.3-0.3,3c-0.3,0.7-1,1-1.7,1C94.3,306.3,84.1,305.6,78.8,310.9"/>
<path fill="#586276" d="M131.1,287.8c10.6,0,18.9,3.3,24.8,9.6c5,5.3,7.3,11.6,7.3,18.9c0,8.6-3.3,15.6-9.6,21.2
	c-5.6,5-13.2,7.3-22.8,7.3c-6,0-11.6-1.3-16.9-4c-5-2.3-8.6-6-11.3-10.9c-2.3-4.3-3.6-8.9-3.6-14.2c0-8.3,3.3-15.2,9.6-20.8
	c3.3-2.6,7.3-4.6,11.9-6C124.1,288.4,127.7,287.8,131.1,287.8 M131.1,304c-3.3,0-6.3,1.3-8.6,3.6c-2.3,2.3-3.6,5.3-3.6,8.9
	c0,3.3,1.3,6.3,3.6,8.6c2.3,2.3,5.3,3.6,8.6,3.6s6.3-1.3,8.6-3.6c2.3-2.3,3.6-5.3,3.6-8.6c0-3.3-1.3-6.3-3.6-8.6
	C137.3,305.3,134.4,304,131.1,304"/>
<path fill="#586276" d="M197.2,317.9l11.9-25.2c0.7-1.3,1-2.3,1.7-2.3c0.3-0.3,1.3-0.3,3-0.3h5.6c1.7,0,2.3,0,3,0.3
	c0.3,0.3,1,1,1.7,2.3l11.9,26.1l12.2-26.1c0.7-1.3,1-2.3,1.7-2.3c0.3-0.3,1.3-0.3,3-0.3h11.9c2.6,0,4,0.7,4,2c0,0.7-0.3,1.7-1,2.6
	l-23.8,45.7c-0.7,1.3-1.3,2-1.7,2.3c-0.3,0.3-1.3,0.3-2.6,0.3H233c-1.7,0-2.3,0-3-0.3c-0.3-0.3-1-1-1.7-2.3l-11.9-26.5l-11.6,26.5
	c-0.7,1.3-1,2.3-1.7,2.6c-0.3,0.3-1.3,0.3-3,0.3h-6.6c-1.7,0-2.3,0-2.6-0.3s-1-1-1.7-2.3L165.8,295c-0.7-1.3-1-2-1-2.6
	c0-0.7,0.3-1.3,1-1.7c0.7-0.3,1.7-0.3,3-0.3h12.6c1.7,0,2.3,0,3,0.3c0.3,0.3,1,1,1.7,2.3L197.2,317.9z"/>
<path fill="#586276" d="M313.7,337.1c-4,5-9.6,7.6-16.5,7.6c-4.6,0-8.6-1-12.9-3.3c-4.6-2.6-7.9-6-10.6-10.3
	c-2.3-4.3-3.6-9.3-3.6-14.6c0-8.9,3.3-16.2,9.6-21.8c5-4.3,10.9-6.6,17.2-6.6c3.3,0,6.6,0.7,9.3,1.7s5,3,7.6,5.3v-26.5
	c0-1.7,0.3-2.6,0.7-3.3c0.7-0.3,1.7-0.7,3.3-0.7h10.9c1.7,0,2.6,0.3,3.3,0.7c0.3,0.3,0.7,1.7,0.7,3.3v70.5c0,1.7-0.3,2.6-0.7,3.3
	c-0.3,0.3-1.7,0.7-3.3,0.7h-10.9c-1.7,0-2.6-0.3-3.3-0.7c-0.3-0.3-0.7-1.7-0.7-3.3V337.1z M302.2,304.3c-3.3,0-6.3,1.3-8.6,3.6
	c-2.3,2.3-3.6,5.3-3.6,8.6c0,3.3,1.3,6,3.6,8.3c2.3,2.3,5.3,3.6,8.6,3.6c3.3,0,6.3-1.3,8.6-3.6c2.3-2.3,3.6-5.3,3.6-8.6
	c0-3.3-1.3-6.3-3.6-8.6C308.4,305.6,305.5,304.3,302.2,304.3"/>
<path fill="#F0524D" d="M400.4,329.5h-28.1L368,340c-0.7,1.3-1,2.3-1.3,2.6c-0.3,0.3-1.3,0.3-3,0.3h-13.2c-1.3,0-2.3,0-3-0.3
	c-0.7-0.3-1-1-1-1.7c0-0.3,0.3-1.3,0.7-2.3l27.1-70.5c0-0.3,0.3-0.7,0.3-1c0.3-1,0.7-1.3,1-1.7c0.3-0.3,1.3-0.3,2.6-0.3h15.9
	c1.7,0,2.6,0,3,0.3c0.3,0.3,1,1,1.3,2.6l26.8,70.5c0.3,1.3,0.7,2,0.7,2.3c0,0.7-0.3,1.3-1,1.7c-0.7,0.3-1.7,0.3-3,0.3h-13.6
	c-1.7,0-2.6,0-3-0.3c-0.3-0.3-1-1-1.3-2.6L400.4,329.5z M394.8,313.9l-8.3-24.8l-8.6,24.8H394.8z"/>
<path fill="#F0524D" d="M450.7,268.6v70.5c0,1.7-0.3,2.6-0.7,3.3c-0.3,0.3-1.7,0.7-3.3,0.7h-12.6c-1.7,0-2.6-0.3-3.3-0.7
	c-0.3-0.3-0.7-1.7-0.7-3.3v-70.5c0-1.7,0.3-2.6,0.7-3.3c0.3-0.3,1.7-0.7,3.3-0.7h12.6c1.7,0,2.6,0.3,3.3,0.7
	C450.4,265.9,450.7,266.9,450.7,268.6"/>
<path fill="#586276" d="M313.7,337.1c-4,5-9.6,7.6-16.5,7.6c-4.6,0-8.6-1-12.9-3.3c-4.6-2.6-7.9-6-10.6-10.3
	c-2.3-4.3-3.6-9.3-3.6-14.6c0-8.9,3.3-16.2,9.6-21.8c5-4.3,10.9-6.6,17.2-6.6c3.3,0,6.6,0.7,9.3,1.7s5,3,7.6,5.3v-26.5
	c0-1.7,0.3-2.6,0.7-3.3c0.7-0.3,1.7-0.7,3.3-0.7h10.9c1.7,0,2.6,0.3,3.3,0.7c0.3,0.3,0.7,1.7,0.7,3.3v70.5c0,1.7-0.3,2.6-0.7,3.3
	c-0.3,0.3-1.7,0.7-3.3,0.7h-10.9c-1.7,0-2.6-0.3-3.3-0.7c-0.3-0.3-0.7-1.7-0.7-3.3V337.1z M302.2,304.3c-3.3,0-6.3,1.3-8.6,3.6
	c-2.3,2.3-3.6,5.3-3.6,8.6c0,3.3,1.3,6,3.6,8.3c2.3,2.3,5.3,3.6,8.6,3.6c3.3,0,6.3-1.3,8.6-3.6c2.3-2.3,3.6-5.3,3.6-8.6
	c0-3.3-1.3-6.3-3.6-8.6C308.4,305.6,305.5,304.3,302.2,304.3"/>
<path fill="#F0524D" d="M598,327.8l-13.2-20.5c5.3-3,9.3-10.9,10.3-13.6c0.3-0.7,0.3-1.3-0.3-1.7l-12.2-15.6c-0.7-1-2.3-0.7-2.6,0.3
	c-2,5.3-6,10.6-6,10.6l-1.3-2.6c3.6-4.3,4-13.2,4-13.2c-0.3-18.2-10.3-24.5-18.5-26.5c-2.6-0.7-4.3,2.6-2.3,4.3
	c2.6,2.3,4.6,4.6,4.6,4.6c6.9,10.3,3,18.5,3,18.5c-1.3-2.3-5.6-5-12.6-7.6s-10.3-9.9-10.3-9.9l0,0c0,0-3.3,6.9-10.3,9.9
	c-6.9,2.6-11.3,5.3-12.6,7.6c0,0-4-8.3,3-18.5c0,0,1.7-2,4-4.3c2-2,0-5-2.3-4.3c-8.3,2.3-18.2,8.9-18.2,26.1c0,0,0,8.9,4,13.2
	l-1.3,2.6c0,0-4-5.6-6-10.6c-0.3-1.3-2-1.3-2.6-0.3l-12.2,15.6c-0.3,0.3-0.3,1-0.3,1.7c1.3,2.6,5.3,10.9,10.3,13.6l-13.2,20.5
	c0,0-3,4.3-1.3,6.3c1.7,1.7,5,1.3,5,1.3s16.2-4,20.8-3.6c0,0,5.6,23.8,31.1,23.8h4c25.5,0,31.1-23.8,31.1-23.8
	c4.6,0,20.8,3.6,20.8,3.6s3.3,0.7,5-1.3C601,332.1,598,327.8,598,327.8 M555.7,340.4c-4.6,2.3-9.6,3.3-14.9,3.3c-5,0-9.9-1-14.2-3
	c-2-0.7-2.6-3-1.7-5c0.7-2,3-2.6,5-1.7c7.3,3.3,15.9,3.3,22.8-0.3c1.7-1,4,0,5,1.7C558.3,337.1,557.3,339.4,555.7,340.4
	 M558.3,325.8c-4,0-7.6-1.7-10.3-4l0,0c-1.7-1.7-4.3-2.6-6.9-2.6c-2.6,0-5.3,1-6.9,3l0,0c-2.6,2.3-6.3,4-9.9,4
	c-8.3,0-14.9-6.6-14.9-14.9v-2.3c0,0,13.6-3.6,32.1-3.6s31.8,4,31.8,4v2C572.9,319.2,566.2,325.8,558.3,325.8"/>
<path fill="#F0524D" d="M561.9,313.6h-9.6c-0.7,0-1,0.3-1,1c0,0.3,0.3,1,0.7,1h0.3h9.6c0.7,0,1-0.3,1-1
	C563.3,314.2,562.6,313.6,561.9,313.6"/>
<path fill="#F0524D" d="M528.8,313.6h-9.6c-0.7,0-1,0.3-1,1c0,0.3,0.3,1,0.7,1h0.3h9.6c0.7,0,1-0.3,1-1
	C530.2,314.2,529.5,313.6,528.8,313.6"/>
</svg>
