<?xml version="1.0" encoding="utf-8"?>
<!-- Generator: Adobe Illustrator 16.0.4, SVG Export Plug-In . SVG Version: 6.00 Build 0)  -->
<!DOCTYPE svg PUBLIC "-//W3C//DTD SVG 1.1//EN" "http://www.w3.org/Graphics/SVG/1.1/DTD/svg11.dtd">
<svg version="1.1" id="Layer_1" xmlns="http://www.w3.org/2000/svg" xmlns:xlink="http://www.w3.org/1999/xlink" x="0px" y="0px"
	 width="504px" height="504px" viewBox="0 0 504 504" enable-background="new 0 0 504 504" xml:space="preserve">
<path fill="#F0524D" d="M394.849,324.584l-34.927-54.137c13.971-7.858,24.449-28.812,27.068-35.797
	c0.874-1.746,0.874-3.493-0.874-4.366l-32.306-41.037c-1.747-2.62-6.112-1.747-6.986,0.873
	c-5.238,13.97-15.713,27.941-15.713,27.941l-3.494-6.985c9.604-11.351,10.478-34.926,10.478-34.926
	c-0.874-48.022-27.067-64.612-48.895-69.851c-6.987-1.747-11.353,6.984-6.113,11.351c6.983,6.111,12.224,12.223,12.224,12.223
	c18.336,27.068,7.857,48.896,7.857,48.896c-3.49-6.113-14.842-13.097-33.179-20.083c-18.336-6.984-27.068-26.194-27.068-26.194l0,0
	c0,0-8.729,18.336-27.065,26.194c-18.336,6.986-29.688,13.97-33.178,20.083c0,0-10.478-21.828,7.855-48.896
	c0,0,4.368-5.239,10.478-11.35c5.239-5.239,0-13.097-6.11-11.351c-21.83,6.112-48.024,23.575-48.024,68.978
	c0,0,0,23.575,10.478,34.926l-3.491,6.985c0,0-10.478-14.844-15.716-27.941c-0.875-3.492-5.239-3.492-6.987-0.873l-32.304,41.037
	c-0.875,0.873-0.875,2.62-0.875,4.366c3.494,6.984,13.972,28.815,27.069,35.797l-34.927,54.137c0,0-7.858,11.35-3.493,16.588
	c4.368,4.367,13.097,3.493,13.097,3.493s42.785-10.478,55.008-9.604c0,0,14.846,62.867,82.077,62.867h10.478
	c67.23,0,82.073-62.867,82.073-62.867c12.224,0,55.009,9.604,55.009,9.604s8.732,1.745,13.097-3.493
	C402.707,335.934,394.849,324.584,394.849,324.584 M283.087,357.764c-12.223,6.112-25.319,8.731-39.292,8.731
	c-13.097,0-26.194-2.619-37.543-7.858c-5.239-1.748-6.987-7.857-4.368-13.098c1.749-5.238,7.858-6.986,13.097-4.367
	c19.21,8.732,41.912,8.732,60.248-0.871c4.363-2.619,10.478,0,13.098,4.364C290.07,349.029,287.451,355.143,283.087,357.764
	 M290.07,319.346c-10.479,0-20.081-4.367-27.064-10.479l0,0c-4.367-4.367-11.353-6.987-18.336-6.987
	c-6.987,0-13.972,2.62-18.337,7.858l0,0c-6.987,6.113-16.59,10.478-26.194,10.478c-21.83,0-39.292-17.462-39.292-39.291v-6.11
	c0,0,35.798-9.605,84.693-9.605c48.897,0,83.821,10.479,83.821,10.479v5.238C328.491,301.88,311.026,319.346,290.07,319.346"/>
<path fill="#F0524D" d="M298.572,283.881l-24.461,6.555c-1.686,0.451-2.303,1.521-1.853,3.207c0.228,0.844,1.522,2.303,2.367,2.076
	l0.841-0.225l24.46-6.555c1.687-0.451,2.305-1.521,1.854-3.207C302.396,284.662,300.258,283.43,298.572,283.881"/>
<path fill="#F0524D" d="M212.612,290.374l-24.457-6.554c-1.686-0.451-2.757,0.166-3.208,1.852c-0.227,0.846,0.167,2.756,1.008,2.982
	l0.844,0.226l24.458,6.554c1.688,0.452,2.756-0.166,3.208-1.852C215.535,292.963,214.301,290.826,212.612,290.374"/>
</svg>
