<svg viewBox="0 0 403 80" xmlns="http://www.w3.org/2000/svg">
  <g fill="none" fill-rule="evenodd">
    <path d="M20.456 39.067c-1.374 0-2.656.235-3.845.705a8.968 8.968 0 0 0-3.132 2.078c-.899.914-1.612 2.05-2.14 3.41-.53 1.358-.794 2.9-.794 4.625 0 1.724.264 3.266.793 4.625s1.255 2.508 2.18 3.449a9.109 9.109 0 0 0 3.172 2.117c1.19.47 2.471.705 3.845.705 1.322 0 2.498-.196 3.529-.588 1.03-.392 1.916-.901 2.656-1.528a7.957 7.957 0 0 0 1.784-2.117c.45-.784.78-1.542.99-2.273l9.277 3.057c-.422 1.62-1.123 3.2-2.1 4.743-.979 1.541-2.234 2.926-3.767 4.154-1.533 1.228-3.33 2.221-5.391 2.98-2.062.757-4.388 1.136-6.978 1.136-2.854 0-5.536-.51-8.047-1.529-2.511-1.019-4.691-2.443-6.541-4.272-1.85-1.83-3.304-3.985-4.361-6.467C.529 55.594 0 52.864 0 49.885c0-2.98.515-5.723 1.546-8.231 1.03-2.509 2.458-4.665 4.282-6.468 1.823-1.803 3.964-3.214 6.422-4.233 2.458-1.019 5.114-1.528 7.968-1.528 2.643 0 5.009.379 7.096 1.136 2.088.758 3.899 1.738 5.432 2.94 1.533 1.202 2.775 2.587 3.726 4.155.952 1.568 1.639 3.161 2.062 4.782l-9.436 3.135c-.475-1.62-1.387-3.11-2.735-4.468-1.348-1.359-3.317-2.038-5.907-2.038zm48.652 1.881a16.313 16.313 0 0 0-3.172-.313c-1.374 0-2.669.183-3.885.548a7.949 7.949 0 0 0-3.171 1.803c-.899.837-1.625 1.947-2.18 3.332-.555 1.385-.833 3.123-.833 5.213v17.638H45.322V30.601H55.55v5.722c.581-1.254 1.335-2.286 2.26-3.096.925-.81 1.902-1.424 2.933-1.843a13.691 13.691 0 0 1 3.092-.862 18.857 18.857 0 0 1 2.815-.235c.423 0 .833.013 1.229.04.396.025.806.064 1.229.117v10.504zm23.36 19.912c1.268 0 2.51-.236 3.726-.706a8.887 8.887 0 0 0 3.171-2.077c.899-.915 1.626-2.052 2.18-3.41.556-1.36.833-2.953.833-4.782 0-1.83-.277-3.423-.832-4.782-.555-1.359-1.282-2.496-2.18-3.41a8.887 8.887 0 0 0-3.172-2.077 10.247 10.247 0 0 0-3.727-.706c-1.268 0-2.51.235-3.726.706a8.887 8.887 0 0 0-3.172 2.077c-.898.914-1.625 2.051-2.18 3.41-.555 1.359-.833 2.953-.833 4.782 0 1.829.278 3.423.833 4.782.555 1.358 1.282 2.495 2.18 3.41a8.887 8.887 0 0 0 3.172 2.077c1.215.47 2.458.706 3.726.706zm0-31.435c2.906 0 5.615.51 8.126 1.528 2.51 1.02 4.678 2.43 6.502 4.233 1.823 1.803 3.25 3.96 4.281 6.468 1.03 2.508 1.546 5.252 1.546 8.23 0 2.98-.515 5.71-1.546 8.193-1.03 2.482-2.458 4.638-4.281 6.467-1.824 1.829-3.991 3.253-6.502 4.272-2.51 1.02-5.22 1.529-8.127 1.529-2.907 0-5.616-.51-8.127-1.529-2.51-1.019-4.678-2.443-6.501-4.272-1.824-1.83-3.251-3.985-4.282-6.467-1.03-2.483-1.546-5.213-1.546-8.192 0-2.98.515-5.723 1.546-8.231 1.03-2.509 2.458-4.665 4.282-6.468 1.823-1.803 3.99-3.214 6.501-4.233 2.511-1.019 5.22-1.528 8.127-1.528zm59.751 1.176l8.405 24.85 7.215-24.85h10.466l-12.21 38.568h-10.546l-9.118-26.34-8.96 26.34h-10.703L114.32 30.601h11.1l7.215 24.771 8.484-24.771h11.1zm67.602 31.591c0 1.307.026 2.6.08 3.88.052 1.28.131 2.313.237 3.097h-10.07c-.105-.418-.198-1.045-.277-1.881a27.403 27.403 0 0 1-.119-2.587c-.899 1.515-2.286 2.796-4.163 3.84-1.876 1.046-4.136 1.569-6.779 1.569-2.801 0-5.365-.51-7.69-1.529-2.326-1.02-4.322-2.43-5.987-4.233-1.665-1.803-2.973-3.946-3.924-6.428-.952-2.483-1.428-5.187-1.428-8.114 0-2.822.463-5.46 1.388-7.917.925-2.456 2.207-4.586 3.845-6.389 1.639-1.803 3.608-3.227 5.907-4.272 2.3-1.046 4.824-1.568 7.572-1.568 1.692 0 3.158.157 4.4.47 1.243.314 2.313.706 3.212 1.176.898.47 1.625.98 2.18 1.529.555.548.965 1.084 1.23 1.607V12.414h10.386v49.778zm-29.495-12.386c0 3.45.912 6.141 2.735 8.075 1.824 1.933 4.136 2.9 6.938 2.9 2.696 0 4.969-.967 6.819-2.9 1.85-1.934 2.775-4.652 2.775-8.153 0-3.45-.925-6.101-2.775-7.957-1.85-1.855-4.123-2.783-6.819-2.783-2.696 0-4.982.941-6.858 2.822-1.877 1.882-2.815 4.547-2.815 7.996z" fill="#373737"/>
    <path d="M265.112 56.253h-22.727l-4.656 12.575h-11.522l21.465-55.035h12.626l21.307 55.035h-11.837l-4.656-12.575zm-19.097-9.78h15.467l-7.734-20.804-7.733 20.803zm41.558 22.355V13.793h11.048v55.035h-11.048z" fill="#F0524D"/>
    <g transform="translate(317.241)" fill="#F0524D" fill-rule="nonzero">
      <path d="M84.072 59.77l-9.398-14.795c3.725-2.15 6.604-7.914 7.281-9.807.254-.516.254-.946-.254-1.204l-8.72-11.269c-.509-.688-1.61-.516-1.863.258-1.44 3.785-4.234 7.656-4.234 7.656l-.931-1.892c2.624-3.097 2.794-9.549 2.794-9.549C68.493 6.007 61.465 1.448 55.538.071c-1.863-.516-3.048 1.893-1.609 3.097a34.522 34.522 0 0 1 3.303 3.355c4.91 7.398 2.116 13.42 2.116 13.42-.931-1.635-3.98-3.613-8.975-5.506-4.91-1.892-7.281-7.14-7.281-7.14s-2.371 4.99-7.282 7.14c-4.91 1.893-8.044 3.785-8.975 5.505 0 0-2.794-5.935 2.117-13.419 0 0 1.185-1.462 2.794-3.097 1.44-1.462 0-3.613-1.609-3.096C24.21 1.964 17.182 6.78 17.182 19.254c0 0 0 6.452 2.795 9.549l-.932 1.892s-2.794-4.043-4.233-7.656c-.254-.946-1.44-.946-1.863-.258L4.228 34.05c-.254.258-.254.688-.254 1.204.931 1.893 3.725 7.914 7.282 9.807L1.857 59.856s-2.117 3.097-.931 4.56c1.185 1.204 3.556.946 3.556.946s11.515-2.839 14.817-2.667c0 0 3.98 17.204 22.1 17.204h2.793c18.12 0 22.1-17.204 22.1-17.204 3.302 0 14.817 2.667 14.817 2.667s2.37.516 3.556-.946c1.524-1.549-.593-4.646-.593-4.646M53.93 68.803c-3.302 1.634-6.858 2.408-10.583 2.408-3.556 0-7.028-.688-10.16-2.15-1.44-.516-1.864-2.15-1.186-3.613.508-1.463 2.117-1.893 3.556-1.205 5.165 2.41 11.261 2.41 16.257-.258 1.185-.688 2.794 0 3.556 1.205.508 1.204-.254 2.924-1.44 3.613m1.948-10.495c-2.794 0-5.419-1.204-7.282-2.839-1.185-1.204-3.048-1.892-4.91-1.892-1.863 0-3.726.688-4.912 2.15-1.862 1.635-4.487 2.84-7.027 2.84-5.927 0-10.584-4.818-10.584-10.754V46.18s9.652-2.667 22.861-2.667c13.209 0 22.607 2.839 22.607 2.839v1.462c-.423 5.678-5.165 10.495-10.753 10.495"/>
      <rect transform="rotate(16 31.304 50.683)" x="27.07" y="49.304" width="8.467" height="2.581" rx="1.29"/>
      <rect transform="scale(-1 1) rotate(16 0 -341.091)" x="50.827" y="49.304" width="8.467" height="2.581" rx="1.29"/>
    </g>
  </g>
</svg>
