<svg xmlns="http://www.w3.org/2000/svg" x="-132.874" y="88.583" width="900" height="600.102" viewBox="-1476 0 9997.4256 6666.1012" id="svg2"><defs id="defs4"><style id="style6">.fil6{fill:#009240}.fil4{fill:#1f1a17}.fil2{fill:#da251d}.fil0{fill:#fff}.fil3{fill:#0077bd}.fil1{fill:#29166f}.fil5{fill:#f1a737}</style></defs><g id="g3813" transform="matrix(3.38553 0 0 3.38553 3521.032 0)"><path id="74923296" class="fil0" fill="#fff" d="M-1476 0h2953v1969h-2953z"/><g id="g10" fill="#29166f"><ellipse id="74923384" class="fil1" cy="631" rx="433" ry="433"/><path id="74923472" class="fil1" d="M-784 767c74-226 319-351 546-278 226 74 351 319 278 546-74 227-319 352-546 278s-352-319-278-546z"/><path id="74923560" class="fil1" d="M-485 1689c-193-140-236-412-95-605 140-193 412-236 604-96 193 141 236 412 96 605s-412 236-605 96z"/><path id="74923648" class="fil1" d="M485 1689c-193 140-465 97-605-96s-97-464 96-605c192-140 464-97 604 96 141 193 98 465-95 605z"/><path id="74923736" class="fil1" d="M784 767c74 227-51 472-278 546s-472-51-546-278c-73-227 52-472 278-546 227-73 472 52 546 278z"/></g><g id="g17"><ellipse id="74923912" class="fil0" cy="631" rx="366" ry="366" fill="#fff"/><path id="74924000" class="fil0" d="M-720 788c62-192 269-297 461-235S38 823-24 1014c-62 192-270 298-461 235-192-62-298-269-235-461z" fill="#fff"/><path id="74924088" class="fil0" d="M-445 1635c-163-118-200-348-81-511 118-164 348-200 511-81 163 118 200 348 81 511-118 163-348 200-511 81z" fill="#fff"/><path id="74924176" class="fil0" d="M445 1635c-163 119-393 82-511-81-119-163-82-393 81-511 163-119 393-83 511 81 119 163 82 393-81 511z" fill="#fff"/><path id="74924264" class="fil0" d="M720 788c63 192-43 399-235 461-191 63-399-43-461-235-62-191 43-399 235-461s399 43 461 235z" fill="#fff"/></g><path id="74924440" class="fil2" d="M692 797c51 157-22 325-165 396 73 142 34 321-99 418s-316 79-428-35c-112 114-295 132-428 35s-172-276-99-418c-143-71-216-239-165-396 51-156 209-249 367-223 23-158 160-280 325-280s302 122 325 280c158-26 316 67 367 223z" fill="#da251d"/><path id="74924528" class="fil0" d="M650 811c48 149-34 310-183 359-2 1-4 1-6 2 1 2 2 4 4 5 92 127 63 306-63 398-127 92-306 64-398-63-1-2-3-4-4-6-1 2-3 4-4 6-92 127-271 155-398 63-126-92-155-271-63-398 2-1 3-3 4-5-2-1-4-1-6-2-149-49-231-210-183-359 49-149 210-231 359-183l6 3v-7c0-157 128-285 285-285s285 128 285 285v6c2 0 4-1 6-2 149-48 310 34 359 183z" fill="#fff"/><ellipse id="74924616" class="fil1" cy="787" rx="231" ry="231" fill="#29166f"/><g id="g27"><ellipse id="74924704" class="fil0" cy="787" rx="103" ry="103" fill="#fff"/><path id="74924792" class="fil0" d="M0 581l24 92c-7-2-16-3-24-3s-17 1-24 3l24-92zm36 95l67-68-25 92c-12-10-26-19-42-24zm51 33l92-25-68 67c-5-16-13-30-24-42zm28 54l92 24-92 25c1-8 2-16 2-25 0-8-1-16-2-24zm-4 60l68 68-92-25c11-12 19-27 24-43zm-33 51l25 92-67-67c16-5 30-14 42-25zm-54 28L0 994l-24-92c7 2 16 2 24 2s17 0 24-2zm-60-3l-67 67 25-92c12 11 26 20 42 25zm-51-33l-92 25 68-68c5 16 13 31 24 43zm-28-54l-92-25 92-24c-1 8-2 16-2 24 0 9 1 17 2 25zm4-61l-68-67 92 25c-11 12-19 26-24 42zm33-51l-25-92 67 68c-16 5-30 14-42 24z" fill="#fff"/></g><path id="74922944" class="fil3" d="M-305 1076c77 0 140 63 140 139 0 77-63 140-140 140s-140-63-140-140c0-76 63-139 140-139z" fill="#0077bd"/><path id="74922856" class="fil0" d="M-305 1105c61 0 110 50 110 110 0 61-49 111-110 111s-110-50-110-111c0-60 49-110 110-110z" fill="#fff"/><path id="74922416" class="fil4" d="M0 1076c77 0 140 63 140 139 0 77-63 140-140 140s-140-63-140-140c0-76 63-139 140-139z"/><path id="74922328" class="fil0" d="M0 1105c61 0 110 50 110 110 0 61-49 111-110 111s-110-50-110-111c0-60 49-110 110-110z" fill="#fff"/><path id="74921888" class="fil2" d="M306 1076c77 0 140 63 140 139 0 77-63 140-140 140s-140-63-140-140c0-76 63-139 140-139z" fill="#da251d"/><path id="74921800" class="fil0" d="M306 1105c60 0 110 50 110 110 0 61-50 111-110 111-61 0-110-50-110-111 0-60 49-110 110-110z" fill="#fff"/><path id="74925232" class="fil5" d="M-153 1202c71 0 130 54 139 123-12-2-22-5-32-9-12-49-55-85-107-85-5 0-9 0-13 1 0-5 1-11 1-17 0-4-1-8-1-13h13zm139 153c-7 70-67 126-139 126-77 0-140-63-140-140 0-62 41-115 98-133v7c0 9-1 18-3 26-38 17-65 56-65 100 0 61 49 111 110 111 58 0 106-46 110-104 9 3 19 6 29 7z" fill="#f1a737"/><path id="74925320" class="fil6" d="M153 1202c72 0 131 54 139 123-11-2-22-5-32-9-11-49-55-85-107-85-5 0-9 1-14 1 0-5 1-11 1-17 0-4 0-8-1-13h14zm139 153c-6 70-66 126-139 126-77 0-140-63-140-140 0-61 41-114 97-132v6c0 9-1 18-3 26-38 18-64 56-64 100 0 61 49 111 110 111 59 0 106-46 110-103 10 3 19 5 29 6z" fill="#009240"/></g></svg>